#!OML:ASF I:\Actors\actors\Patient Classification 2\Patient 1\Session 1\actor1.ASF
:FULLY-SPECIFIED
:DEGREES
386
root -0.424346 17.6203 6.59808 -2.30414 10.4474 -4.72578
lowerback 20.0846 2.29026 1.15043
upperback 2.20651 3.46437 1.9357
thorax -8.89563 1.65546 0.504946
lowerneck 3.89188 8.27628 12.5876
upperneck 15.8337 12.2964 -8.07453
head 5.42095 6.38395 -4.03157
rclavicle -2.07606e-014 -1.70955e-014
rhumerus -65.671 37.3556 -88.3076
rradius 117.632
rwrist -43.3226
rhand 33.8571 -54.7293
rfingers 7.12502
rthumb 57.1372 -71.2004
lclavicle -2.07606e-014 -1.70955e-014
lhumerus -77.7672 -32.0618 93.0925
lradius 130.188
lwrist 54.1955
lhand 37.2031 -5.73807
lfingers 7.12502
lthumb 60.039 8.00124
rfemur -2.90068 -12.1227 15.8295
rtibia 38.0681
rfoot -29.1124 -1.98933
rtoes -31.0269
lfemur -17.1341 -4.8867 -9.48596
ltibia 51.0936
lfoot -28.0946 1.34973
ltoes -57.713
387
root -0.416646 17.6193 6.58418 -2.31537 10.5572 -4.78472
lowerback 20.1693 2.19377 0.986728
upperback 2.32336 3.30746 2.00666
thorax -8.82581 1.58864 0.716791
lowerneck 1.60392 8.57313 12.991
upperneck 17.5239 12.5478 -8.13019
head 6.39836 6.47239 -3.96309
rclavicle 2.45996e-014 -7.60351e-015
rhumerus -65.3646 40.0926 -89.2299
rradius 117.275
rwrist -43.8136
rhand 34.8162 -55.622
rfingers 7.12502
rthumb 57.9769 -71.364
lclavicle 2.45996e-014 -7.60351e-015
lhumerus -77.735 -33.5384 93.476
lradius 129.958
lwrist 55.1575
lhand 37.665 -5.45901
lfingers 7.12502
lthumb 60.433 7.85853
rfemur -3.03894 -12.3649 15.8001
rtibia 38.2803
rfoot -28.8414 -1.8901
rtoes -31.2571
lfemur -17.2647 -5.08297 -9.48164
ltibia 51.2041
lfoot -28.0931 1.43745
ltoes -57.6087
388
root -0.408693 17.6175 6.57322 -2.33988 10.6158 -4.83465
lowerback 20.3265 2.09797 0.781857
upperback 2.37305 3.1478 2.10154
thorax -8.8716 1.52106 0.975718
lowerneck -0.530112 8.86271 13.3571
upperneck 19.2445 12.819 -8.28312
head 7.39107 6.56264 -3.92674
rclavicle -9.59136e-015 4.62174e-015
rhumerus -65.0656 41.6485 -89.8267
rradius 116.926
rwrist -43.5842
rhand 36.1415 -57.1329
rfingers 7.12502
rthumb 59.1271 -71.798
lclavicle -9.59136e-015 4.62174e-015
lhumerus -77.7418 -34.3809 93.6652
lradius 129.785
lwrist 55.6387
lhand 38.2104 -5.23885
lfingers 7.12502
lthumb 60.8959 7.5653
rfemur -3.16294 -12.5497 15.7608
rtibia 38.4886
rfoot -28.5634 -1.82638
rtoes -31.5425
lfemur -17.3352 -5.24587 -9.49053
ltibia 51.295
lfoot -28.1336 1.55635
ltoes -57.5776
389
root -0.39653 17.6168 6.56533 -2.32752 10.5764 -4.9004
lowerback 20.5249 2.0048 0.645117
upperback 2.29889 3.00891 2.18505
thorax -9.0709 1.45992 1.17603
lowerneck -2.39842 9.15353 13.6124
upperneck 20.9575 13.113 -8.34536
head 8.35301 6.66531 -3.85496
rclavicle -7.82715e-016 -1.59028e-015
rhumerus -64.9535 43.0688 -90.2408
rradius 116.616
rwrist -43.3546
rhand 37.0509 -57.9472
rfingers 7.12502
rthumb 59.9088 -71.8229
lclavicle -7.82715e-016 -1.59028e-015
lhumerus -77.9184 -34.5903 93.772
lradius 129.711
lwrist 55.7192
lhand 38.5271 -5.41086
lfingers 7.12502
lthumb 61.1634 7.08722
rfemur -3.32318 -12.6605 15.7412
rtibia 38.6733
rfoot -28.3446 -1.74968
rtoes -31.7134
lfemur -17.4123 -5.30406 -9.48629
ltibia 51.3804
lfoot -28.1975 1.69617
ltoes -57.6168
390
root -0.378871 17.6162 6.56131 -2.24006 10.496 -4.97951
lowerback 20.6793 1.9171 0.661164
upperback 2.14575 2.90732 2.21755
thorax -9.32329 1.4101 1.22489
lowerneck -3.65859 9.37243 14.0819
upperneck 22.5679 13.3278 -8.30666
head 9.19914 6.77153 -3.82181
rclavicle -9.26834e-015 -2.30093e-014
rhumerus -64.9208 44.3088 -90.4493
rradius 116.448
rwrist -43.4237
rhand 37.3289 -57.8914
rfingers 7.12502
rthumb 60.1465 -71.5169
lclavicle -9.26834e-015 -2.30093e-014
lhumerus -78.2059 -34.3343 93.8184
lradius 129.751
lwrist 55.6943
lhand 38.5334 -5.62812
lfingers 7.12502
lthumb 61.1687 6.86382
rfemur -3.52342 -12.7685 15.7344
rtibia 38.8089
rfoot -28.1284 -1.57703
rtoes -31.5664
lfemur -17.5475 -5.32622 -9.47283
ltibia 51.4646
lfoot -28.2175 1.80781
ltoes -57.51
391
root -0.35827 17.6155 6.56305 -2.14384 10.5454 -5.03159
lowerback 20.8086 1.80383 0.780892
upperback 1.98455 2.79102 2.20199
thorax -9.56341 1.34837 1.16775
lowerneck -4.63337 9.55001 14.3679
upperneck 23.7386 13.5027 -8.27437
head 9.84018 6.85243 -3.78231
rclavicle -4.10987e-014 -3.77691e-015
rhumerus -64.9961 44.608 -90.5592
rradius 116.433
rwrist -43.4144
rhand 38.0088 -57.6199
rfingers 7.12502
rthumb 60.725 -70.6159
lclavicle -4.10987e-014 -3.77691e-015
lhumerus -78.518 -33.7092 93.7506
lradius 129.874
lwrist 55.7162
lhand 38.4162 -5.53921
lfingers 7.12502
lthumb 61.0698 7.06673
rfemur -3.64408 -12.9572 15.6917
rtibia 38.8865
rfoot -27.9806 -1.3663
rtoes -31.2395
lfemur -17.6897 -5.4987 -9.50365
ltibia 51.5344
lfoot -28.2202 1.96826
ltoes -57.4269
